<svg width="256" height="68" viewBox="0 0 256 68" fill="none" xmlns="http://www.w3.org/2000/svg">
<g filter="url(#filter0_d_1_26)">
<rect x="25" y="24.8254" width="11.6923" height="11.6923" rx="1" fill="white"/>
</g>
<g filter="url(#filter1_d_1_26)">
<ellipse cx="37.4232" cy="22.6331" rx="5.11538" ry="5.11539" stroke="white"/>
</g>
<path d="M54.8905 22.3458C54.8205 22.0098 54.7015 21.7858 54.5335 21.6738C54.3655 21.5478 54.0785 21.4848 53.6725 21.4848H53.2315V19.9308H56.4655L58.5235 29.6748L60.7915 22.2198H62.5555L64.8445 29.6748L66.9235 19.9308H70.1365V21.4848H69.6745C69.2685 21.4848 68.9815 21.5478 68.8135 21.6738C68.6455 21.7858 68.5265 22.0098 68.4565 22.3458L65.9575 33.5178H64.1305L61.6735 25.7898L59.2585 33.5178H57.4105L54.8905 22.3458ZM76.7954 33.8328C75.1994 33.8328 73.9184 33.3918 72.9524 32.5098C72.0004 31.6138 71.5244 30.3118 71.5244 28.6038C71.5244 26.7838 71.9654 25.4188 72.8474 24.5088C73.7434 23.5848 75.0104 23.1228 76.6484 23.1228C78.2304 23.1228 79.4274 23.5708 80.2394 24.4668C81.0514 25.3628 81.4574 26.5738 81.4574 28.0998V29.0658H73.7504C73.7504 30.1998 74.0234 31.0398 74.5694 31.5858C75.1294 32.1178 75.8784 32.3838 76.8164 32.3838C77.3484 32.3838 77.7964 32.3488 78.1604 32.2788C78.5244 32.1948 78.8534 32.0618 79.1474 31.8798V31.1238H81.1004V32.5938C80.5124 33.0138 79.8754 33.3218 79.1894 33.5178C78.5174 33.7278 77.7194 33.8328 76.7954 33.8328ZM79.2944 27.7008C79.2944 25.6568 78.4054 24.6348 76.6274 24.6348C75.6894 24.6348 74.9754 24.9078 74.4854 25.4538C73.9954 25.9998 73.7504 26.7488 73.7504 27.7008H79.2944ZM82.8447 31.9638H83.4537C83.7337 31.9638 83.9297 31.9008 84.0417 31.7748C84.1677 31.6488 84.2307 31.4458 84.2307 31.1658V21.9468C84.2307 21.6808 84.1677 21.4918 84.0417 21.3798C83.9297 21.2538 83.7337 21.1908 83.4537 21.1908H82.8447V19.6158H86.4777V31.1868C86.4777 31.4528 86.5407 31.6488 86.6667 31.7748C86.7927 31.9008 86.9887 31.9638 87.2547 31.9638H87.8637V33.5178H82.8447V31.9638ZM92.9149 33.8328C91.5289 33.8328 90.4439 33.3848 89.6599 32.4888C88.8899 31.5928 88.5049 30.3118 88.5049 28.6458C88.5049 26.8958 88.8899 25.5378 89.6599 24.5718C90.4299 23.6058 91.5429 23.1228 92.9989 23.1228C93.8529 23.1228 94.5319 23.2278 95.0359 23.4378C95.5539 23.6478 95.9809 23.9978 96.3169 24.4878V22.0728C96.3169 21.7368 96.2609 21.4988 96.1489 21.3588C96.0369 21.2188 95.8199 21.1488 95.4979 21.1488H95.1409V19.6158H98.4799V31.2708C98.4799 31.5788 98.5289 31.7958 98.6269 31.9218C98.7249 32.0338 98.9069 32.0898 99.1729 32.0898H99.5929V33.5178H96.7789L96.5899 32.0478C96.1699 32.6778 95.6729 33.1328 95.0989 33.4128C94.5249 33.6928 93.7969 33.8328 92.9149 33.8328ZM93.4189 32.1948C94.3149 32.1948 95.0149 31.9078 95.5189 31.3338C96.0229 30.7458 96.2749 29.9618 96.2749 28.9818V27.9108C96.2749 26.8888 96.0299 26.1048 95.5399 25.5588C95.0639 25.0128 94.3849 24.7398 93.5029 24.7398C92.5089 24.7398 91.7879 25.0478 91.3399 25.6638C90.9059 26.2798 90.6889 27.2668 90.6889 28.6248C90.6889 29.9128 90.8989 30.8298 91.3189 31.3758C91.7389 31.9218 92.4389 32.1948 93.4189 32.1948ZM101.882 19.9098H104.255V21.8418H101.882V19.9098ZM100.559 31.9638H101.168C101.448 31.9638 101.644 31.9008 101.756 31.7748C101.882 31.6488 101.945 31.4458 101.945 31.1658V25.7688C101.945 25.5028 101.882 25.3138 101.756 25.2018C101.644 25.0758 101.448 25.0128 101.168 25.0128H100.559V23.4378H104.192V31.1868C104.192 31.4528 104.255 31.6488 104.381 31.7748C104.507 31.9008 104.703 31.9638 104.969 31.9638H105.578V33.5178H100.559V31.9638ZM106.757 31.9638H107.282C107.562 31.9638 107.758 31.9078 107.87 31.7958C107.996 31.6698 108.059 31.4668 108.059 31.1868V25.7898C108.059 25.5098 108.003 25.3138 107.891 25.2018C107.779 25.0758 107.583 25.0128 107.303 25.0128H106.862V23.4378H109.55L109.676 24.8448C110.152 24.2428 110.691 23.8088 111.293 23.5428C111.909 23.2628 112.651 23.1228 113.519 23.1228C115.759 23.1228 116.879 24.2848 116.879 26.6088V31.1868C116.879 31.4668 116.935 31.6698 117.047 31.7958C117.173 31.9078 117.376 31.9638 117.656 31.9638H118.244V33.5178H114.632V26.6298C114.632 25.9298 114.485 25.4258 114.191 25.1178C113.897 24.7958 113.421 24.6348 112.763 24.6348C112.049 24.6348 111.461 24.8378 110.999 25.2438C110.537 25.6498 110.306 26.2168 110.306 26.9448V31.1868C110.306 31.4668 110.355 31.6698 110.453 31.7958C110.565 31.9078 110.754 31.9638 111.02 31.9638H111.566V33.5178H106.757V31.9638ZM125.185 37.7178C123.519 37.7178 122.175 37.2278 121.153 36.2478V34.7988H123.085V35.5548C123.351 35.7508 123.631 35.8838 123.925 35.9538C124.233 36.0378 124.604 36.0798 125.038 36.0798C126.494 36.0798 127.222 35.3448 127.222 33.8748V32.1948C126.844 32.7128 126.382 33.0908 125.836 33.3288C125.29 33.5668 124.639 33.6858 123.883 33.6858C122.455 33.6858 121.349 33.2308 120.565 32.3208C119.795 31.4108 119.41 30.0878 119.41 28.3518C119.41 26.6858 119.816 25.3978 120.628 24.4878C121.454 23.5778 122.567 23.1228 123.967 23.1228C124.779 23.1228 125.465 23.2698 126.025 23.5638C126.585 23.8438 127.075 24.2988 127.495 24.9288L127.684 23.4168H130.498V24.8658H130.057C129.805 24.8658 129.63 24.9358 129.532 25.0758C129.434 25.2018 129.385 25.4188 129.385 25.7268V33.5388C129.385 34.7988 129 35.8068 128.23 36.5628C127.474 37.3328 126.459 37.7178 125.185 37.7178ZM124.408 32.0478C125.304 32.0478 125.983 31.7888 126.445 31.2708C126.921 30.7388 127.159 29.9618 127.159 28.9398V27.9738C127.159 26.9798 126.921 26.1958 126.445 25.6218C125.969 25.0338 125.283 24.7398 124.387 24.7398C123.407 24.7398 122.693 25.0268 122.245 25.6008C121.811 26.1608 121.594 27.0778 121.594 28.3518C121.594 29.6818 121.811 30.6338 122.245 31.2078C122.679 31.7678 123.4 32.0478 124.408 32.0478ZM144.287 33.8328C142.691 33.8328 141.41 33.3918 140.444 32.5098C139.492 31.6138 139.016 30.3118 139.016 28.6038C139.016 26.7838 139.457 25.4188 140.339 24.5088C141.235 23.5848 142.502 23.1228 144.14 23.1228C145.722 23.1228 146.919 23.5708 147.731 24.4668C148.543 25.3628 148.949 26.5738 148.949 28.0998V29.0658H141.242C141.242 30.1998 141.515 31.0398 142.061 31.5858C142.621 32.1178 143.37 32.3838 144.308 32.3838C144.84 32.3838 145.288 32.3488 145.652 32.2788C146.016 32.1948 146.345 32.0618 146.639 31.8798V31.1238H148.592V32.5938C148.004 33.0138 147.367 33.3218 146.681 33.5178C146.009 33.7278 145.211 33.8328 144.287 33.8328ZM146.786 27.7008C146.786 25.6568 145.897 24.6348 144.119 24.6348C143.181 24.6348 142.467 24.9078 141.977 25.4538C141.487 25.9998 141.242 26.7488 141.242 27.7008H146.786ZM154.213 33.8328C152.827 33.8328 151.742 33.3848 150.958 32.4888C150.188 31.5928 149.803 30.3118 149.803 28.6458C149.803 26.8958 150.188 25.5378 150.958 24.5718C151.728 23.6058 152.841 23.1228 154.297 23.1228C155.151 23.1228 155.83 23.2278 156.334 23.4378C156.852 23.6478 157.279 23.9978 157.615 24.4878V22.0728C157.615 21.7368 157.559 21.4988 157.447 21.3588C157.335 21.2188 157.118 21.1488 156.796 21.1488H156.439V19.6158H159.778V31.2708C159.778 31.5788 159.827 31.7958 159.925 31.9218C160.023 32.0338 160.205 32.0898 160.471 32.0898H160.891V33.5178H158.077L157.888 32.0478C157.468 32.6778 156.971 33.1328 156.397 33.4128C155.823 33.6928 155.095 33.8328 154.213 33.8328ZM154.717 32.1948C155.613 32.1948 156.313 31.9078 156.817 31.3338C157.321 30.7458 157.573 29.9618 157.573 28.9818V27.9108C157.573 26.8888 157.328 26.1048 156.838 25.5588C156.362 25.0128 155.683 24.7398 154.801 24.7398C153.807 24.7398 153.086 25.0478 152.638 25.6638C152.204 26.2798 151.987 27.2668 151.987 28.6248C151.987 29.9128 152.197 30.8298 152.617 31.3758C153.037 31.9218 153.737 32.1948 154.717 32.1948ZM167.534 37.7178C165.868 37.7178 164.524 37.2278 163.502 36.2478V34.7988H165.434V35.5548C165.7 35.7508 165.98 35.8838 166.274 35.9538C166.582 36.0378 166.953 36.0798 167.387 36.0798C168.843 36.0798 169.571 35.3448 169.571 33.8748V32.1948C169.193 32.7128 168.731 33.0908 168.185 33.3288C167.639 33.5668 166.988 33.6858 166.232 33.6858C164.804 33.6858 163.698 33.2308 162.914 32.3208C162.144 31.4108 161.759 30.0878 161.759 28.3518C161.759 26.6858 162.165 25.3978 162.977 24.4878C163.803 23.5778 164.916 23.1228 166.316 23.1228C167.128 23.1228 167.814 23.2698 168.374 23.5638C168.934 23.8438 169.424 24.2988 169.844 24.9288L170.033 23.4168H172.847V24.8658H172.406C172.154 24.8658 171.979 24.9358 171.881 25.0758C171.783 25.2018 171.734 25.4188 171.734 25.7268V33.5388C171.734 34.7988 171.349 35.8068 170.579 36.5628C169.823 37.3328 168.808 37.7178 167.534 37.7178ZM166.757 32.0478C167.653 32.0478 168.332 31.7888 168.794 31.2708C169.27 30.7388 169.508 29.9618 169.508 28.9398V27.9738C169.508 26.9798 169.27 26.1958 168.794 25.6218C168.318 25.0338 167.632 24.7398 166.736 24.7398C165.756 24.7398 165.042 25.0268 164.594 25.6008C164.16 26.1608 163.943 27.0778 163.943 28.3518C163.943 29.6818 164.16 30.6338 164.594 31.2078C165.028 31.7678 165.749 32.0478 166.757 32.0478ZM178.986 33.8328C177.39 33.8328 176.109 33.3918 175.143 32.5098C174.191 31.6138 173.715 30.3118 173.715 28.6038C173.715 26.7838 174.156 25.4188 175.038 24.5088C175.934 23.5848 177.201 23.1228 178.839 23.1228C180.421 23.1228 181.618 23.5708 182.43 24.4668C183.242 25.3628 183.648 26.5738 183.648 28.0998V29.0658H175.941C175.941 30.1998 176.214 31.0398 176.76 31.5858C177.32 32.1178 178.069 32.3838 179.007 32.3838C179.539 32.3838 179.987 32.3488 180.351 32.2788C180.715 32.1948 181.044 32.0618 181.338 31.8798V31.1238H183.291V32.5938C182.703 33.0138 182.066 33.3218 181.38 33.5178C180.708 33.7278 179.91 33.8328 178.986 33.8328ZM181.485 27.7008C181.485 25.6568 180.596 24.6348 178.818 24.6348C177.88 24.6348 177.166 24.9078 176.676 25.4538C176.186 25.9998 175.941 26.7488 175.941 27.7008H181.485ZM198.152 37.7178C196.486 37.7178 195.142 37.2278 194.12 36.2478V34.7988H196.052V35.5548C196.318 35.7508 196.598 35.8838 196.892 35.9538C197.2 36.0378 197.571 36.0798 198.005 36.0798C199.461 36.0798 200.189 35.3448 200.189 33.8748V32.1948C199.811 32.7128 199.349 33.0908 198.803 33.3288C198.257 33.5668 197.606 33.6858 196.85 33.6858C195.422 33.6858 194.316 33.2308 193.532 32.3208C192.762 31.4108 192.377 30.0878 192.377 28.3518C192.377 26.6858 192.783 25.3978 193.595 24.4878C194.421 23.5778 195.534 23.1228 196.934 23.1228C197.746 23.1228 198.432 23.2698 198.992 23.5638C199.552 23.8438 200.042 24.2988 200.462 24.9288L200.651 23.4168H203.465V24.8658H203.024C202.772 24.8658 202.597 24.9358 202.499 25.0758C202.401 25.2018 202.352 25.4188 202.352 25.7268V33.5388C202.352 34.7988 201.967 35.8068 201.197 36.5628C200.441 37.3328 199.426 37.7178 198.152 37.7178ZM197.375 32.0478C198.271 32.0478 198.95 31.7888 199.412 31.2708C199.888 30.7388 200.126 29.9618 200.126 28.9398V27.9738C200.126 26.9798 199.888 26.1958 199.412 25.6218C198.936 25.0338 198.25 24.7398 197.354 24.7398C196.374 24.7398 195.66 25.0268 195.212 25.6008C194.778 26.1608 194.561 27.0778 194.561 28.3518C194.561 29.6818 194.778 30.6338 195.212 31.2078C195.646 31.7678 196.367 32.0478 197.375 32.0478ZM209.282 33.8328C208.134 33.8328 207.266 33.5318 206.678 32.9298C206.09 32.3278 205.796 31.4668 205.796 30.3468V25.7688C205.796 25.5028 205.733 25.3068 205.607 25.1808C205.495 25.0548 205.306 24.9918 205.04 24.9918H204.431V23.4378H208.043V30.3258C208.043 31.6838 208.701 32.3628 210.017 32.3628C210.731 32.3628 211.305 32.1528 211.739 31.7328C212.173 31.3128 212.39 30.7108 212.39 29.9268V25.7688C212.39 25.5028 212.334 25.3068 212.222 25.1808C212.124 25.0548 211.949 24.9918 211.697 24.9918H211.109V23.4378H214.616V31.1868C214.616 31.4528 214.679 31.6488 214.805 31.7748C214.931 31.8868 215.127 31.9428 215.393 31.9428H215.813V33.5178H213.146L213.02 32.1528C212.572 32.7408 212.047 33.1678 211.445 33.4338C210.857 33.6998 210.136 33.8328 209.282 33.8328ZM218.099 19.9098H220.472V21.8418H218.099V19.9098ZM216.776 31.9638H217.385C217.665 31.9638 217.861 31.9008 217.973 31.7748C218.099 31.6488 218.162 31.4458 218.162 31.1658V25.7688C218.162 25.5028 218.099 25.3138 217.973 25.2018C217.861 25.0758 217.665 25.0128 217.385 25.0128H216.776V23.4378H220.409V31.1868C220.409 31.4528 220.472 31.6488 220.598 31.7748C220.724 31.9008 220.92 31.9638 221.186 31.9638H221.795V33.5178H216.776V31.9638ZM227.077 33.8328C225.691 33.8328 224.606 33.3848 223.822 32.4888C223.052 31.5928 222.667 30.3118 222.667 28.6458C222.667 26.8958 223.052 25.5378 223.822 24.5718C224.592 23.6058 225.705 23.1228 227.161 23.1228C228.015 23.1228 228.694 23.2278 229.198 23.4378C229.716 23.6478 230.143 23.9978 230.479 24.4878V22.0728C230.479 21.7368 230.423 21.4988 230.311 21.3588C230.199 21.2188 229.982 21.1488 229.66 21.1488H229.303V19.6158H232.642V31.2708C232.642 31.5788 232.691 31.7958 232.789 31.9218C232.887 32.0338 233.069 32.0898 233.335 32.0898H233.755V33.5178H230.941L230.752 32.0478C230.332 32.6778 229.835 33.1328 229.261 33.4128C228.687 33.6928 227.959 33.8328 227.077 33.8328ZM227.581 32.1948C228.477 32.1948 229.177 31.9078 229.681 31.3338C230.185 30.7458 230.437 29.9618 230.437 28.9818V27.9108C230.437 26.8888 230.192 26.1048 229.702 25.5588C229.226 25.0128 228.547 24.7398 227.665 24.7398C226.671 24.7398 225.95 25.0478 225.502 25.6638C225.068 26.2798 224.851 27.2668 224.851 28.6248C224.851 29.9128 225.061 30.8298 225.481 31.3758C225.901 31.9218 226.601 32.1948 227.581 32.1948ZM239.894 33.8328C238.298 33.8328 237.017 33.3918 236.051 32.5098C235.099 31.6138 234.623 30.3118 234.623 28.6038C234.623 26.7838 235.064 25.4188 235.946 24.5088C236.842 23.5848 238.109 23.1228 239.747 23.1228C241.329 23.1228 242.526 23.5708 243.338 24.4668C244.15 25.3628 244.556 26.5738 244.556 28.0998V29.0658H236.849C236.849 30.1998 237.122 31.0398 237.668 31.5858C238.228 32.1178 238.977 32.3838 239.915 32.3838C240.447 32.3838 240.895 32.3488 241.259 32.2788C241.623 32.1948 241.952 32.0618 242.246 31.8798V31.1238H244.199V32.5938C243.611 33.0138 242.974 33.3218 242.288 33.5178C241.616 33.7278 240.818 33.8328 239.894 33.8328ZM242.393 27.7008C242.393 25.6568 241.504 24.6348 239.726 24.6348C238.788 24.6348 238.074 24.9078 237.584 25.4538C237.094 25.9998 236.849 26.7488 236.849 27.7008H242.393Z" fill="white"/>
<defs>
<filter id="filter0_d_1_26" x="0" y="5.82544" width="61.6923" height="61.6923" filterUnits="userSpaceOnUse" color-interpolation-filters="sRGB">
<feFlood flood-opacity="0" result="BackgroundImageFix"/>
<feColorMatrix in="SourceAlpha" type="matrix" values="0 0 0 0 0 0 0 0 0 0 0 0 0 0 0 0 0 0 127 0" result="hardAlpha"/>
<feOffset dy="6"/>
<feGaussianBlur stdDeviation="12.5"/>
<feColorMatrix type="matrix" values="0 0 0 0 0.602048 0 0 0 0 0.949963 0 0 0 0 0.930168 0 0 0 0.355129 0"/>
<feBlend mode="normal" in2="BackgroundImageFix" result="effect1_dropShadow_1_26"/>
<feBlend mode="normal" in="SourceGraphic" in2="effect1_dropShadow_1_26" result="shape"/>
</filter>
<filter id="filter1_d_1_26" x="22.8079" y="14.0178" width="29.2308" height="29.2308" filterUnits="userSpaceOnUse" color-interpolation-filters="sRGB">
<feFlood flood-opacity="0" result="BackgroundImageFix"/>
<feColorMatrix in="SourceAlpha" type="matrix" values="0 0 0 0 0 0 0 0 0 0 0 0 0 0 0 0 0 0 127 0" result="hardAlpha"/>
<feOffset dy="6"/>
<feGaussianBlur stdDeviation="4.5"/>
<feColorMatrix type="matrix" values="0 0 0 0 1 0 0 0 0 1 0 0 0 0 1 0 0 0 1 0"/>
<feBlend mode="normal" in2="BackgroundImageFix" result="effect1_dropShadow_1_26"/>
<feBlend mode="normal" in="SourceGraphic" in2="effect1_dropShadow_1_26" result="shape"/>
</filter>
</defs>
</svg>
